<svg xmlns="http://www.w3.org/2000/svg" xmlns:xlink="http://www.w3.org/1999/xlink" version="1.1" id="Your_Icon" x="0px" y="0px" width="100px" height="100px" viewBox="0 0 100 100" enable-background="new 0 0 100 100" xml:space="preserve">
<path fill="#000000" d="M81.732,86.141c-3.678,0-6.662,2.986-6.662,6.659c0,3.685,2.984,6.664,6.662,6.664s6.661-2.979,6.661-6.664  C88.394,89.127,85.41,86.141,81.732,86.141z M81.732,95.596c-1.552,0-2.815-1.26-2.815-2.807c0-1.549,1.264-2.809,2.815-2.809  c1.551,0,2.814,1.26,2.814,2.809C84.547,94.336,83.283,95.596,81.732,95.596z M20.939,86.141c-3.679,0-6.662,2.986-6.662,6.659  c0,3.685,2.983,6.664,6.662,6.664c3.683,0,6.661-2.979,6.661-6.664C27.6,89.127,24.622,86.141,20.939,86.141z M20.939,95.596  c-1.551,0-2.809-1.26-2.809-2.807c0-1.549,1.258-2.809,2.809-2.809s2.811,1.26,2.811,2.809C23.75,94.336,22.49,95.596,20.939,95.596  z M36.182,86.141c-3.679,0-6.657,2.986-6.657,6.659c0,3.685,2.978,6.664,6.657,6.664s6.662-2.979,6.662-6.664  C42.843,89.127,39.86,86.141,36.182,86.141z M36.182,95.596c-1.547,0-2.805-1.26-2.805-2.807c0-1.549,1.258-2.809,2.805-2.809  c1.552,0,2.816,1.26,2.816,2.809C38.998,94.336,37.733,95.596,36.182,95.596z M96.352,87.707l1.452-10.761l-6.316-14.402H77.379  c-0.688,5.031-1.522,14.111-1.954,17.269c-0.118,0.885-0.805,0.344-0.805,0.344h-9.521V70.093H39.934v-3.941  c0-1.718-1.891-3.607-3.609-3.607h-3.939V51.536l36.57-41.405l-1.118-1.325l1.238-1.296l2.545,2.419h1.028v34.086v0.032  l-1.975,0.016l-0.105,1.289l2.021-0.012c0.008,0.166,0.027,1.447-1.005,2.299c-1.154,0.949-1.689,2.82-1.194,4.17  c0.418,1.14,1.482,1.787,2.925,1.787c0.024,0,0.05,0,0.074,0c1.293-0.02,2.244-0.408,2.828-1.156c0.8-1.027,0.537-2.276,0.503-2.415  c-0.096-0.421-0.518-0.693-0.943-0.584c-0.424,0.098-0.687,0.521-0.585,0.943c0,0.007,0.13,0.646-0.217,1.088  c-0.342,0.44-1.064,0.544-1.61,0.552c-1.172,0.035-1.429-0.565-1.498-0.756c-0.265-0.721,0.082-1.894,0.715-2.416  c1.49-1.225,1.588-3.003,1.584-3.521l1.789-0.009L75.5,44.016h-1.396V9.929h1.27l1.414-1.398V1.063H64.333V3l0.186,0.176  L20.484,52.513l1.016,1.084l0.016-0.017l1.363,1.409l-2.441,2.793l4.087,3.576l4.186-5.215l-0.139,6.4h-4.499  c-1.729,0-4.271,1.89-4.271,3.607v3.941H9.735v10.063H2.187v12.583h8.952c0.034-5.376,4.415-9.744,9.801-9.744h15.243  c5.387,0,9.768,4.368,9.801,9.744h25.949c0.032-5.376,4.414-9.744,9.801-9.744s9.766,4.368,9.801,9.744h6.28v-5.032H96.352z   M25.317,52.198l-1.391-1.181l41.74-46.75l1.542,1.466l-1.264,1.462L65.208,6.55L25.317,52.198z M79.649,77.644l0.466-10.913  l0.173-1.671h8.931l4.036,12.584H79.649z"/>
</svg>